<?xml version="1.0" standalone="no"?>
<!DOCTYPE svg PUBLIC "-//W3C//DTD SVG 20010904//EN"
 "http://www.w3.org/TR/2001/REC-SVG-20010904/DTD/svg10.dtd">
<svg version="1.0" xmlns="http://www.w3.org/2000/svg"
 width="380.000000pt" height="820.000000pt" viewBox="0 0 380.000000 820.000000"
 preserveAspectRatio="xMidYMid meet">
<metadata>
Created by potrace 1.16, written by Peter Selinger 2001-2019
</metadata>
<g transform="translate(0.000000,820.000000) scale(0.100000,-0.100000)"
fill="#000000" stroke="none">
<path d="M1611 8174 c-8 -19 -16 -24 -29 -19 -38 16 -52 16 -84 1 -20 -9 -56
-15 -93 -14 -40 1 -71 -4 -92 -15 -39 -21 -74 -83 -63 -112 4 -11 11 -55 14
-97 7 -70 6 -78 -13 -97 -12 -12 -32 -46 -46 -76 -13 -30 -29 -55 -35 -55 -6
0 -38 11 -72 25 -34 14 -76 25 -93 25 -31 0 -45 8 -135 77 -72 55 -153 56
-214 3 -22 -20 -44 -30 -65 -30 -60 0 -120 -48 -177 -142 -42 -69 -105 -125
-154 -138 -20 -5 -53 -24 -73 -42 -32 -29 -38 -42 -47 -97 -8 -55 -15 -71 -49
-105 -21 -23 -50 -60 -65 -83 -48 -78 -31 -193 27 -193 12 0 17 -8 17 -25 0
-26 53 -82 91 -97 10 -4 34 -38 53 -75 19 -37 51 -84 71 -103 20 -19 45 -50
56 -67 18 -29 26 -33 65 -33 25 0 55 5 67 12 23 12 58 52 68 77 4 9 8 -3 11
-28 3 -36 0 -49 -19 -69 -14 -15 -23 -37 -23 -57 0 -18 -7 -38 -15 -45 -8 -6
-26 -32 -41 -57 -20 -34 -25 -54 -21 -82 3 -23 -1 -44 -10 -56 -10 -14 -13
-46 -12 -111 1 -50 -1 -96 -5 -102 -11 -18 12 -86 37 -111 17 -15 23 -29 19
-47 -9 -48 19 -114 75 -174 35 -39 53 -66 53 -83 0 -29 50 -93 81 -102 15 -5
19 -16 19 -52 0 -39 5 -50 35 -78 l36 -32 3 -149 c3 -105 11 -176 26 -239 45
-192 44 -190 20 -263 -17 -48 -25 -103 -30 -202 -5 -95 -12 -145 -24 -168 -16
-32 -18 -32 -89 -32 -39 0 -77 -4 -82 -8 -19 -13 -53 -68 -61 -95 -3 -15 -18
-34 -33 -41 -48 -25 -65 -53 -64 -105 0 -26 5 -57 11 -68 9 -17 6 -23 -19 -42
-17 -12 -35 -33 -41 -47 -6 -13 -19 -24 -29 -24 -44 0 -79 -41 -79 -95 0 -15
-4 -34 -9 -44 -6 -10 -13 -64 -17 -122 -6 -87 -11 -109 -31 -135 -38 -51 -24
-164 21 -164 9 0 15 -28 20 -100 5 -69 13 -111 25 -133 11 -17 29 -59 41 -92
18 -52 28 -64 73 -92 29 -18 61 -33 72 -33 11 0 62 -5 113 -12 77 -10 91 -15
86 -28 -15 -35 -15 -73 0 -113 24 -63 86 -97 196 -108 159 -15 1104 -29 1545
-23 507 7 519 8 583 78 47 51 56 76 50 141 l-3 45 55 15 c134 38 222 94 251
162 11 26 29 53 39 60 11 8 20 21 20 30 0 9 6 24 14 32 8 9 19 57 25 106 9 82
13 92 41 116 27 23 30 31 30 87 0 56 -2 62 -31 82 -28 21 -30 26 -27 80 1 31
-2 64 -8 71 -6 8 -14 31 -18 52 -5 26 -14 41 -30 48 -12 6 -36 36 -51 67 -16
31 -41 67 -57 80 -26 22 -28 27 -22 78 8 63 -6 106 -42 124 -14 8 -24 22 -24
35 0 29 -34 71 -73 92 -28 14 -53 18 -160 22 -24 1 -57 59 -57 99 0 38 -43
175 -66 210 -17 27 -16 87 3 117 34 55 46 139 47 337 l1 196 28 22 c16 13 27
31 27 45 0 13 5 27 10 30 6 3 10 19 10 34 0 19 9 34 29 49 16 12 35 38 41 59
7 21 21 52 31 69 11 17 19 42 19 54 0 14 17 39 46 65 41 39 45 47 43 82 -2 30
3 48 23 74 36 48 55 113 38 134 -10 13 -10 18 2 33 43 48 63 143 37 169 -6 6
-12 45 -13 86 -1 57 -5 80 -19 95 -12 13 -15 22 -8 27 18 11 12 48 -14 90 -13
22 -25 49 -25 61 0 11 -5 25 -12 32 -17 17 -8 15 37 -8 24 -12 48 -17 64 -13
34 8 171 147 193 195 11 25 34 49 70 71 60 39 142 122 152 155 4 12 12 22 17
22 16 0 10 99 -8 128 -9 15 -38 53 -65 84 -45 53 -48 60 -48 115 0 71 -13 98
-67 139 -38 29 -81 44 -174 59 -33 5 -37 9 -53 60 -34 110 -161 212 -275 222
-79 7 -165 -30 -224 -98 -37 -42 -50 -50 -119 -68 -115 -31 -126 -29 -134 18
-4 24 -21 57 -44 85 -35 42 -38 49 -28 77 13 37 5 79 -26 144 -14 28 -27 66
-30 86 -4 21 -18 47 -37 65 -28 27 -37 29 -114 32 -67 3 -87 8 -101 23 -21 24
-76 25 -110 3 -23 -15 -26 -15 -43 0 -22 20 -49 21 -71 1 -15 -14 -18 -14 -30
0 -15 18 -51 20 -68 3 -10 -10 -17 -10 -32 0 -12 7 -56 12 -108 12 -86 0 -89
-1 -101 -26z m390 -76 c4 -17 1 -44 -9 -72 -19 -52 -11 -76 29 -88 13 -4 57
-17 97 -28 105 -30 155 -78 176 -167 8 -37 23 -78 34 -92 41 -57 36 -84 -22
-120 -18 -12 -36 -31 -39 -42 -3 -12 -10 -18 -16 -14 -18 11 -84 119 -75 122
5 2 33 17 62 33 36 21 52 37 52 51 0 13 -5 19 -12 16 -151 -64 -218 -76 -253
-47 -33 27 7 115 66 145 40 21 69 11 120 -41 67 -69 96 -53 40 22 -45 62 -67
77 -120 82 -60 5 -103 -17 -156 -82 -40 -49 -44 -84 -16 -124 11 -15 22 -37
26 -50 5 -19 1 -25 -31 -38 -32 -14 -44 -14 -77 -3 -49 16 -54 30 -33 88 12
34 14 54 7 79 -17 58 -50 100 -97 122 -65 32 -120 17 -202 -56 -65 -58 -77
-80 -39 -71 20 5 20 5 5 -7 -10 -7 -15 -16 -11 -19 3 -4 -5 -7 -18 -7 -23 0
-24 3 -23 60 1 41 7 67 18 79 29 32 111 70 194 90 45 11 86 22 92 26 18 11 11
53 -15 91 -34 50 -29 69 15 69 35 0 35 0 34 -45 -1 -25 -4 -61 -8 -80 l-8 -35
46 3 c43 4 46 6 46 33 0 16 -7 41 -16 54 -8 13 -14 34 -12 47 3 26 36 37 49
16 12 -18 11 -95 -1 -103 -5 -3 -10 -15 -10 -26 0 -15 7 -19 35 -19 44 0 55
22 32 62 -20 35 -22 71 -4 98 16 27 39 21 48 -12z m-451 -23 c29 -15 80 -89
80 -116 -1 -8 -20 7 -43 33 -40 44 -87 71 -87 49 0 -6 10 -20 23 -33 43 -43
52 -63 14 -30 -38 32 -70 41 -82 22 -3 -5 -19 -10 -35 -10 -28 0 -53 -20 -34
-27 29 -11 39 -22 26 -35 -19 -19 -14 -38 9 -38 34 0 59 19 59 46 0 14 4 22
10 19 21 -13 8 -53 -31 -96 -23 -24 -47 -57 -55 -74 -11 -26 -13 -27 -14 -8 0
12 -10 41 -21 63 l-22 41 23 24 c27 29 21 60 -10 50 -17 -5 -20 -2 -20 26 0
47 24 69 77 69 30 0 54 7 70 20 31 24 27 24 63 5z m764 2 c28 -20 15 -49 -36
-84 -26 -17 -52 -33 -58 -35 -23 -7 2 -38 31 -38 15 0 38 -10 51 -22 13 -13
17 -18 8 -12 -8 6 -33 15 -55 18 -52 10 -85 31 -85 56 0 28 42 52 75 44 25 -6
26 -4 23 22 -2 22 -9 30 -27 32 -44 7 -70 -7 -86 -44 -8 -19 -19 -33 -24 -29
-19 11 20 82 53 95 33 13 110 11 130 -3z m46 -121 c0 -14 9 -41 21 -60 24 -41
19 -83 -12 -112 -28 -25 -26 -56 4 -49 18 5 29 -3 61 -45 41 -54 44 -78 15
-148 -13 -31 -12 -34 9 -51 21 -15 23 -23 17 -63 -5 -35 -3 -52 10 -71 10 -17
13 -27 6 -32 -6 -3 -11 -20 -11 -37 0 -25 -3 -29 -20 -25 -16 4 -20 0 -20 -18
0 -13 5 -27 10 -30 6 -4 8 -11 4 -17 -3 -5 -15 4 -25 21 -24 40 -54 43 -44 4
3 -15 10 -30 13 -33 4 -3 8 -22 10 -44 2 -28 0 -37 -10 -34 -23 8 -81 148 -72
172 8 20 11 20 32 -1 16 -16 17 -15 20 6 2 13 -1 28 -7 34 -22 22 -13 93 16
127 19 24 28 46 31 86 4 51 2 58 -38 116 l-43 62 12 95 c11 93 11 94 -14 127
-31 41 -31 44 0 44 20 0 25 -5 25 -24z m-1026 -192 c4 -9 4 -32 0 -50 -8 -45
16 -46 38 -1 l16 32 7 -36 c5 -27 2 -44 -14 -70 -12 -20 -21 -51 -21 -75 l0
-42 -41 41 c-22 22 -43 53 -46 68 -5 24 11 120 24 142 8 13 31 7 37 -9z m-506
-16 c7 -7 12 -22 12 -33 0 -12 9 -30 20 -40 14 -13 20 -31 20 -61 0 -24 5 -45
13 -48 10 -5 10 -7 0 -12 -7 -3 -13 -18 -13 -33 0 -20 -7 -31 -25 -39 -30 -14
-31 -23 -5 -47 24 -22 17 -37 -16 -29 -20 5 -24 2 -24 -15 0 -12 4 -21 10 -21
16 0 40 -57 40 -95 0 -41 -7 -43 -61 -12 -34 19 -41 20 -49 7 -6 -9 -10 -10
-10 -3 0 6 -19 18 -42 26 -30 11 -36 16 -21 16 13 1 41 17 63 37 33 30 40 43
40 73 0 59 -20 113 -55 148 -35 35 -85 46 -85 18 0 -8 6 -15 14 -15 25 0 65
-41 75 -77 13 -47 -7 -96 -48 -117 -51 -27 -62 -19 -25 18 40 40 44 76 12 106
-22 20 -76 40 -111 40 -26 0 -67 45 -67 74 0 48 61 76 90 41 7 -8 16 -12 21
-9 16 9 10 37 -13 61 -12 13 -17 23 -11 23 6 0 16 -7 23 -15 19 -23 50 -18 99
15 47 32 107 40 129 18z m2264 -28 c40 -19 51 -53 27 -84 -24 -31 -17 -51 12
-35 15 7 24 7 34 -1 10 -8 19 -8 34 0 19 10 21 8 21 -23 0 -55 -19 -71 -86
-71 l-59 -1 -5 -45 c-3 -31 -7 -40 -12 -27 -12 29 -38 21 -38 -12 0 -27 -4
-31 -55 -46 -70 -20 -95 -44 -95 -91 0 -33 -2 -35 -27 -32 -25 3 -28 7 -27 41
1 26 10 47 26 65 34 37 59 92 52 114 -7 24 -33 23 -42 -3 -7 -18 -10 -19 -21
-6 -10 12 -10 19 0 35 10 17 10 25 -5 47 -24 36 -41 26 -42 -26 -1 -24 -2 -54
-3 -67 -2 -39 -44 -72 -91 -72 -54 0 -80 -15 -80 -45 0 -29 -7 -31 -38 -9 -29
20 -28 40 3 48 14 4 31 17 37 31 8 18 23 27 62 35 64 14 96 43 96 87 0 23 -5
33 -15 33 -8 0 -15 -9 -15 -19 0 -20 -18 -31 -50 -31 -10 0 -42 -18 -71 -40
-57 -43 -64 -46 -74 -30 -12 19 34 77 96 120 58 41 63 42 97 31 21 -6 52 -12
71 -14 32 -2 34 0 45 45 15 58 30 76 81 100 43 20 109 19 157 -2z m-1603 -70
c16 0 40 -9 53 -20 14 -11 37 -24 52 -30 l26 -9 -25 -37 c-14 -20 -25 -40 -25
-45 0 -4 -12 -25 -26 -46 -15 -21 -24 -29 -20 -18 5 16 -7 33 -54 78 -67 63
-76 94 -37 135 18 19 23 21 25 8 2 -10 14 -16 31 -16z m-407 -73 c74 -33 118
-77 118 -117 0 -40 -12 -32 -40 25 -24 49 -62 85 -91 85 -27 0 -23 -22 7 -51
36 -32 67 -104 60 -135 -5 -20 -12 -24 -39 -23 -30 2 -30 2 -4 6 17 3 27 10
27 21 -1 40 -39 62 -109 62 -65 0 -83 17 -78 76 2 24 10 50 17 59 18 22 72 19
132 -8z m-619 -53 c12 -14 45 -36 73 -49 70 -31 76 -56 19 -90 -30 -17 -58
-25 -89 -25 -28 0 -46 -5 -46 -12 0 -6 -7 -4 -18 5 -10 10 -23 17 -29 17 -5 0
-20 11 -33 25 -31 33 -65 32 -101 -4 -36 -37 -42 -100 -9 -108 15 -4 20 -14
20 -39 0 -27 -7 -37 -42 -61 -32 -21 -47 -40 -57 -71 -13 -41 -15 -43 -50 -40
-33 3 -36 5 -35 34 2 38 40 93 70 100 14 4 25 19 33 45 7 21 16 39 21 39 6 0
10 20 10 45 0 58 43 110 103 125 68 17 85 27 102 60 19 37 29 37 58 4z m821 0
c3 -9 6 -29 6 -45 0 -34 33 -71 55 -63 8 4 19 20 23 37 l8 31 17 -42 c17 -43
14 -72 -8 -72 -7 0 -29 -16 -49 -35 -37 -35 -69 -44 -81 -24 -4 5 0 18 9 28
20 22 21 75 1 91 -20 17 -21 110 -1 110 8 0 17 -7 20 -16z m2050 -58 c29 -13
79 -31 110 -40 68 -20 97 -57 95 -121 l-2 -40 -6 46 c-15 103 -63 106 -136 7
-34 -47 -52 -64 -57 -55 -4 8 -25 26 -47 41 -34 24 -45 27 -83 21 -41 -6 -45
-5 -56 20 -18 39 -15 54 12 65 13 5 36 25 51 44 32 42 47 44 119 12z m-1424
-34 c16 2 27 1 24 -3 -8 -14 46 -47 96 -59 62 -15 111 -1 142 41 12 16 26 29
31 29 15 0 -4 -44 -29 -67 -45 -41 -162 -28 -231 27 -32 25 -43 25 -43 1 0
-27 68 -78 124 -92 57 -14 148 -6 182 15 13 9 31 30 39 46 9 17 22 30 29 30
14 0 32 -48 21 -58 -3 -3 -5 2 -5 11 0 29 -34 18 -57 -18 -32 -49 -76 -68
-149 -67 -73 1 -125 20 -150 57 -11 15 -26 35 -35 44 -8 10 -18 25 -22 34 -3
9 -12 14 -19 12 -7 -3 -19 4 -25 14 -12 19 -11 19 18 9 16 -5 43 -8 59 -6z
m-930 -52 c49 0 69 -11 75 -42 4 -16 20 -43 36 -59 30 -31 37 -67 17 -87 -19
-19 -37 -14 -31 7 8 32 -14 61 -47 61 -42 0 -59 9 -76 41 -8 16 -21 29 -29 29
-18 0 -18 -1 -4 39 8 23 15 29 22 22 6 -6 22 -11 37 -11z m-412 -83 c11 -10
22 -31 26 -48 3 -19 12 -29 23 -29 14 0 15 -2 5 -9 -32 -20 -41 -139 -16 -201
15 -37 15 -42 -1 -67 -12 -17 -17 -44 -16 -79 1 -49 -1 -54 -24 -60 -14 -3
-36 -19 -49 -35 -14 -16 -31 -29 -39 -29 -8 0 -22 -16 -33 -35 -14 -27 -25
-35 -46 -35 -32 0 -34 6 -12 59 14 35 19 39 59 44 48 5 88 39 81 68 -2 8 3 24
10 34 27 36 17 78 -26 120 -23 22 -50 55 -60 73 l-19 32 24 -6 c54 -13 125 33
125 81 0 30 -20 33 -45 5 -21 -24 -67 -28 -59 -5 15 38 -129 31 -203 -10 -36
-20 -42 -22 -23 -6 14 11 28 21 33 21 4 0 7 18 7 39 0 51 24 77 80 90 69 15
175 9 198 -12z m826 -82 c1 -25 2 -45 4 -45 2 0 12 5 23 10 10 6 19 7 19 3 0
-22 -24 -89 -34 -95 -15 -10 -56 -10 -56 0 0 5 -18 27 -40 50 -26 26 -40 50
-40 67 0 26 3 29 52 39 15 4 33 13 40 20 19 21 31 3 32 -49z m1861 30 c22 -8
48 -15 58 -15 9 0 17 -6 17 -14 0 -7 20 -24 45 -37 41 -22 44 -26 47 -69 l3
-45 45 -6 c56 -6 102 -30 124 -63 23 -36 11 -32 -35 9 -23 21 -49 35 -65 35
-29 0 -27 -4 24 -67 19 -24 29 -43 23 -43 -6 0 -22 18 -36 40 -23 36 -30 41
-51 39 -3 0 -19 17 -35 38 -17 21 -42 43 -57 49 -28 12 -108 12 -178 -1 l-40
-7 4 36 c2 19 0 49 -6 65 -21 59 31 85 113 56z m300 -15 c4 -11 29 -42 56 -69
51 -50 61 -81 39 -122 -14 -26 -28 -24 -36 5 -9 36 -37 57 -83 63 -31 4 -41
10 -41 24 0 11 7 19 16 19 13 0 15 7 10 30 -5 29 10 70 26 70 4 0 10 -9 13
-20z m-2573 -34 c15 -3 30 -15 33 -26 4 -12 24 -32 46 -46 43 -27 49 -50 21
-85 l-19 -22 -6 25 c-6 21 -20 31 -69 50 -68 26 -84 51 -72 117 7 33 7 33 23
14 9 -11 28 -23 43 -27z m2094 -3 c-2 -16 -7 -45 -11 -66 -7 -41 -15 -47 -137
-91 -55 -20 -65 -49 -23 -68 13 -6 22 -15 19 -19 -9 -16 -44 -9 -65 12 -17 17
-20 28 -15 57 14 77 41 114 61 82 9 -15 98 -12 120 4 13 9 16 19 10 32 -16 37
2 84 32 84 10 0 13 -8 9 -27z m-967 -50 c1 -16 -3 -21 -14 -17 -11 5 -15 -1
-15 -18 0 -14 -10 -40 -23 -59 -22 -32 -26 -34 -76 -32 -49 2 -53 1 -48 -17 4
-17 0 -20 -34 -20 -36 0 -38 1 -27 20 18 28 2 37 -31 17 -16 -9 -41 -17 -56
-17 -20 0 -26 -4 -21 -15 10 -27 -34 -17 -65 14 -31 31 -35 53 -19 95 5 14 10
41 12 61 1 19 5 35 9 35 4 0 20 -19 36 -42 48 -70 95 -101 161 -106 51 -4 62
-1 89 22 16 14 47 51 69 81 40 58 51 58 53 -2z m699 21 c12 -8 22 -19 22 -25
0 -20 -66 -49 -113 -49 -38 0 -53 -5 -74 -26 -23 -23 -27 -24 -42 -10 -14 15
-11 20 32 61 26 25 57 50 69 55 36 14 81 12 106 -6z m-420 -95 c17 -16 32 -38
32 -47 0 -27 -48 -122 -61 -122 -17 0 -59 -40 -59 -56 0 -16 -37 -37 -53 -30
-7 2 -4 5 7 5 15 1 17 6 12 34 -4 17 -17 48 -31 66 -13 19 -22 37 -19 40 2 3
11 -5 20 -17 19 -27 34 -28 34 -2 0 11 4 20 9 20 5 0 12 10 14 23 2 12 5 -4 6
-37 1 -49 4 -57 17 -52 9 3 17 6 19 6 11 0 15 72 7 104 -10 35 -10 36 14 30
34 -9 32 19 -3 45 -18 13 -22 20 -13 21 8 0 30 -14 48 -31z m-1460 -9 c13 -16
30 -30 39 -30 8 0 26 -11 39 -25 13 -14 34 -25 48 -25 34 0 56 -25 56 -65 0
-23 -7 -39 -22 -49 -26 -19 -38 -13 -38 20 0 34 -34 64 -73 64 -41 0 -65 17
-69 50 -2 14 -11 26 -20 28 -29 6 -24 -73 7 -118 20 -30 38 -41 86 -55 89 -27
126 -85 77 -119 -33 -23 -49 -20 -43 7 8 29 -15 49 -72 66 -51 14 -86 55 -80
90 3 14 -2 43 -10 64 -14 34 -14 39 1 56 9 10 16 30 16 44 0 37 30 35 58 -3z
m2328 -5 c-9 -14 -22 -49 -30 -77 -9 -38 -19 -54 -32 -57 -31 -5 -44 -22 -44
-55 0 -49 37 -78 105 -84 50 -4 55 -7 55 -29 0 -13 7 -38 16 -55 19 -36 7 -50
-40 -46 -24 2 -32 10 -41 38 -7 21 -25 44 -46 57 -75 49 -71 39 -74 157 l-3
108 28 -5 c28 -6 85 26 103 58 4 8 11 15 14 15 3 0 -2 -11 -11 -25z m-1802
-58 c10 -63 30 -76 41 -27 4 17 11 30 16 30 5 0 7 -11 3 -24 -10 -40 5 -51 33
-24 l25 23 -7 -25 c-9 -31 -3 -25 -47 -43 -29 -12 -38 -22 -38 -40 0 -26 -23
-52 -38 -43 -5 3 -17 29 -27 58 -9 30 -33 70 -54 93 -20 22 -44 49 -52 59 -13
18 -13 18 7 8 11 -6 26 -18 34 -26 20 -25 46 -19 60 14 18 44 34 32 44 -33z
m-747 -99 c19 -18 33 -42 33 -55 0 -13 4 -23 9 -23 5 0 7 -8 4 -18 -3 -13 4
-20 29 -27 66 -20 60 -122 -8 -139 -35 -9 -37 -6 -19 37 22 54 20 64 -38 125
-58 62 -71 85 -62 113 8 26 14 24 52 -13z m195 -133 c16 -14 38 -25 49 -25 12
0 19 -7 19 -18 0 -11 9 -27 20 -37 25 -22 26 -77 3 -100 -16 -17 -53 -17 -95
0 -33 13 -20 -24 17 -47 81 -54 68 -138 -22 -138 -48 0 -48 -15 -1 -59 42 -39
43 -41 28 -68 -9 -15 -30 -34 -48 -42 -37 -17 -40 -29 -12 -64 24 -31 19 -70
-13 -92 -35 -25 -48 -19 -32 13 19 36 11 59 -36 103 -40 36 -46 53 -30 78 7
11 14 10 40 -8 41 -29 63 -24 75 18 9 31 7 36 -25 65 -19 17 -45 38 -57 46
l-24 15 22 28 23 28 27 -26 c35 -34 74 -31 78 5 1 19 -7 31 -32 50 -19 14 -42
38 -52 54 -17 29 -17 30 10 53 26 22 29 23 56 7 34 -21 60 -13 60 19 0 18 -10
28 -39 42 -41 18 -61 52 -61 101 0 31 15 30 52 -1z m-218 -60 c14 -21 14 -25
2 -25 -42 0 -21 -57 35 -96 31 -21 39 -33 39 -58 -1 -47 -21 -66 -69 -66 -33
0 -41 -3 -41 -18 0 -11 15 -27 35 -38 82 -44 43 -133 -44 -104 -23 7 -44 11
-47 7 -12 -11 7 -43 41 -67 51 -37 46 -81 -11 -105 -19 -8 -34 -21 -34 -29 0
-12 -12 -7 -45 16 -35 25 -45 38 -45 59 0 43 18 44 35 2 20 -49 33 -55 67 -35
31 18 37 52 13 72 -8 6 -17 22 -21 33 -3 12 -17 34 -30 48 -31 33 -44 99 -20
99 8 0 28 -18 42 -40 21 -31 33 -40 55 -40 25 0 29 4 29 26 0 16 -15 45 -35
70 -29 35 -55 82 -55 100 0 12 25 1 52 -22 40 -33 82 -30 86 7 2 20 -8 34 -49
69 -50 42 -51 44 -46 87 4 41 21 73 37 73 4 0 15 -11 24 -25z m2164 -5 c14
-23 8 -40 -14 -40 -20 0 -74 -54 -74 -73 0 -20 29 -30 46 -16 8 7 31 15 52 20
20 4 47 11 60 14 32 10 29 -19 -5 -42 -58 -40 -93 -81 -93 -110 0 -16 6 -35
13 -42 10 -11 8 -11 -10 -2 -22 11 -26 20 -37 89 -3 18 -17 48 -31 67 -38 49
-36 91 6 126 40 34 69 37 87 9z m-1008 -134 c0 -43 -29 -79 -79 -100 -44 -17
-77 -57 -67 -81 7 -18 -5 -20 -22 -3 -18 18 -14 53 8 73 11 10 20 24 20 32 0
26 39 89 62 100 13 7 35 12 51 12 24 1 27 -2 27 -33z m1160 -66 c0 -5 -22 -35
-50 -65 -53 -58 -62 -91 -34 -119 26 -26 74 -17 74 14 0 29 50 81 74 78 39 -6
31 -42 -18 -83 -26 -21 -46 -44 -46 -51 0 -16 -16 -19 -25 -4 -3 6 -19 10 -36
10 -26 0 -32 7 -57 60 -16 33 -25 60 -20 60 5 0 15 15 23 34 11 25 24 38 50
46 19 6 35 16 35 21 0 5 7 9 15 9 8 0 15 -4 15 -10z m-1033 -62 c22 -24 48
-58 58 -76 10 -21 30 -39 51 -48 44 -18 50 -35 28 -73 -29 -49 -70 -53 -58 -5
8 30 -30 67 -108 107 -32 16 -60 38 -67 53 -10 22 -8 26 14 34 15 6 25 17 25
30 0 29 11 25 57 -22z m-132 -73 c0 -36 -3 -42 -38 -58 -54 -27 -91 -79 -83
-117 4 -22 2 -30 -9 -30 -23 0 -47 45 -43 82 2 27 11 37 44 56 33 17 43 30 48
57 7 37 29 56 61 52 16 -2 20 -9 20 -42z m25 -183 c0 -36 47 -87 98 -107 31
-13 41 -23 46 -46 4 -24 15 -34 51 -50 35 -16 45 -25 45 -44 0 -13 -7 -31 -16
-39 -21 -22 -25 -20 -18 8 4 18 -3 30 -35 58 -23 19 -58 40 -80 46 -32 10 -42
20 -55 52 -9 22 -21 40 -27 40 -5 0 -8 4 -4 10 7 12 -25 50 -43 50 -10 0 -13
-8 -9 -26 4 -20 -5 -37 -39 -75 -31 -35 -44 -58 -44 -79 0 -33 -11 -38 -30
-15 -19 23 6 132 31 140 26 8 42 42 35 70 -6 22 -3 24 36 28 24 2 46 4 51 5 4
1 7 -10 7 -26z m-710 -558 c0 -22 9 -48 25 -68 24 -31 25 -42 29 -172 5 -156
19 -274 43 -351 10 -34 13 -65 8 -90 -3 -21 -7 -60 -8 -88 -2 -38 -10 -61 -33
-95 -19 -29 -35 -68 -42 -109 -6 -36 -16 -69 -21 -74 -7 -7 -8 2 -5 25 4 23 2
38 -6 43 -16 10 -26 -8 -34 -61 -3 -24 -15 -62 -26 -85 -16 -30 -20 -50 -15
-82 6 -37 3 -45 -19 -66 -14 -14 -26 -35 -26 -48 0 -32 -22 -72 -59 -107 -35
-33 -41 -66 -13 -66 10 0 23 5 30 12 6 6 15 9 18 5 8 -7 -57 -37 -80 -37 -8 0
-43 -15 -79 -34 l-64 -34 1 36 c1 27 -3 37 -16 40 -13 2 -18 -3 -18 -17 0 -12
-5 -21 -11 -21 -6 0 -9 10 -7 23 2 17 11 23 36 25 41 4 50 24 23 51 -23 23
-25 30 -13 47 5 9 21 9 59 1 59 -12 83 -2 128 57 20 27 27 50 32 105 5 60 3
71 -9 71 -18 0 -28 -20 -28 -55 0 -30 -20 -75 -33 -75 -5 0 -6 8 -2 18 23 60
28 102 16 128 -11 24 -14 26 -27 12 -8 -8 -17 -32 -20 -54 -12 -94 -15 -104
-30 -104 -11 0 -13 6 -8 23 22 69 37 126 41 160 5 33 3 37 -17 37 -18 0 -21 4
-17 23 3 12 9 47 13 77 4 30 11 60 16 66 16 21 58 187 64 254 4 39 0 114 -10
188 -9 68 -16 159 -16 202 0 77 0 78 28 85 31 8 62 33 62 50 0 7 22 31 49 53
33 28 52 53 56 74 9 42 14 50 26 43 5 -4 9 -22 9 -41z m1350 -88 c0 -7 12 -22
28 -32 44 -29 162 -151 173 -181 20 -53 29 -272 18 -441 -17 -252 0 -482 42
-563 21 -42 67 -79 98 -79 15 0 23 -10 31 -41 6 -22 9 -46 6 -52 -2 -7 -5 -4
-5 6 -1 19 -35 57 -52 57 -8 0 -9 -13 -5 -41 9 -57 -2 -109 -23 -109 -28 0
-107 101 -126 160 -4 14 -20 43 -36 64 -23 32 -29 50 -29 93 0 29 -4 53 -10
53 -5 0 -10 22 -10 49 0 34 -4 51 -15 55 -8 3 -14 9 -13 13 4 15 -14 58 -33
78 -10 11 -23 43 -29 70 -6 28 -18 60 -25 72 -24 37 -36 108 -24 140 6 15 11
61 10 101 -1 48 4 82 14 102 10 20 15 59 15 127 0 54 5 118 11 143 6 27 7 52
1 65 -16 35 -30 105 -21 105 5 0 9 -6 9 -14z m-174 -14 c13 -8 22 -55 30 -152
4 -44 -1 -100 -15 -175 -21 -109 -22 -116 -34 -145 -3 -8 -18 -55 -33 -105
-25 -84 -26 -95 -16 -167 6 -42 23 -110 37 -150 34 -93 47 -197 28 -219 -7 -8
-13 -36 -13 -62 0 -43 3 -48 43 -74 42 -29 42 -30 39 -81 -2 -30 1 -59 8 -67
9 -11 7 -12 -9 -8 -15 4 -21 13 -21 32 0 15 -9 44 -20 66 -11 22 -20 45 -20
52 0 7 -18 17 -39 23 l-39 10 -7 78 c-5 51 -16 95 -33 132 -24 48 -27 68 -30
185 -3 140 -7 175 -21 175 -5 0 -11 -12 -14 -27 -24 -120 -59 -319 -64 -367
-5 -48 -8 -55 -15 -37 -5 15 2 83 23 199 17 98 38 215 46 262 15 87 14 426 -2
498 -7 30 -6 32 20 32 18 0 42 15 78 50 51 48 70 57 93 42z m-875 -52 c22 -6
53 -28 77 -54 33 -36 41 -53 47 -99 5 -36 2 -75 -6 -109 -19 -74 -16 -285 5
-372 9 -37 25 -81 36 -96 26 -36 25 -40 -5 -40 -30 0 -30 -1 -5 -67 23 -61 40
-220 22 -209 -7 4 -12 15 -12 24 -1 26 -38 102 -50 102 -8 0 -9 -17 -5 -54 7
-55 0 -100 -14 -91 -5 2 -11 36 -15 75 -6 60 -10 70 -27 70 -17 0 -19 -8 -19
-85 0 -81 -1 -87 -40 -147 -25 -40 -40 -76 -41 -98 -1 -31 -2 -32 -8 -10 -4
15 -15 26 -29 28 -17 3 -22 10 -22 32 0 27 2 29 29 24 43 -9 66 28 82 131 13
88 10 102 -16 92 -10 -4 -15 -20 -16 -49 0 -24 -4 -52 -9 -63 -5 -12 -9 94 -9
260 -1 206 -5 299 -16 351 -8 39 -19 120 -25 180 -5 60 -14 127 -19 149 -11
45 0 113 21 126 17 11 45 11 89 -1z m986 -137 c4 -79 -7 -198 -36 -388 -5 -33
-20 -87 -33 -120 l-23 -60 -3 40 c-3 43 20 239 38 320 9 40 22 180 29 305 1
10 4 11 12 3 6 -6 14 -51 16 -100z m-1581 45 c14 -43 17 -82 15 -208 -1 -85
-6 -159 -10 -163 -9 -9 -29 132 -38 264 -5 76 1 159 12 159 2 0 11 -24 21 -52z
m857 21 c23 -30 24 -34 11 -76 -10 -33 -12 -77 -7 -162 7 -139 -8 -258 -42
-333 l-24 -53 0 50 c0 28 -8 138 -17 245 -22 261 -11 360 41 360 7 0 25 -14
38 -31z m370 -99 c3 -36 9 -83 13 -104 11 -64 -24 -359 -38 -316 -31 93 -38
128 -47 205 -22 198 -23 250 -4 267 20 18 54 28 65 19 3 -3 9 -35 11 -71z
m734 -21 c22 -63 16 -301 -12 -473 l-25 -154 25 -78 c13 -44 25 -90 25 -104 0
-14 11 -48 25 -75 14 -28 17 -39 8 -25 -10 13 -27 34 -38 45 l-20 20 -3 -21
c-2 -12 4 -39 12 -60 14 -34 14 -37 1 -19 -20 26 -43 102 -56 190 -12 73 -8
145 17 365 11 91 15 183 12 283 -4 104 -2 147 6 144 6 -2 16 -19 23 -38z
m-919 -25 c12 -8 30 -13 40 -10 20 7 18 21 26 -219 5 -172 25 -319 55 -398 16
-42 -3 -209 -34 -286 -30 -78 -31 -95 -4 -145 12 -24 19 -52 17 -74 l-3 -37
-111 -3 -111 -3 5 29 c2 17 -2 33 -12 41 -11 10 -14 24 -9 57 4 29 1 49 -7 59
-9 11 -11 36 -7 88 4 42 2 96 -5 130 -14 68 1 215 28 272 14 31 16 55 9 178
-9 183 -9 254 0 294 6 28 11 32 30 27 13 -3 32 -1 42 5 24 14 25 14 51 -5z
m-564 -733 c23 -25 16 -57 -27 -123 -23 -36 -35 -47 -48 -43 -10 4 -27 1 -38
-4 -16 -9 -15 -3 10 42 17 33 31 76 35 113 3 32 12 81 20 108 8 27 15 93 16
145 1 76 3 63 7 -60 5 -134 9 -160 25 -178z m1105 137 c6 -17 13 -77 16 -132
3 -56 8 -120 10 -143 4 -39 3 -43 -18 -43 -44 0 -48 10 -50 146 -3 179 15 251
42 172z m-407 -679 c104 -35 175 -79 234 -141 147 -159 179 -375 86 -580 -75
-166 -271 -288 -461 -288 -119 0 -259 60 -351 151 -133 130 -186 304 -145 474
28 121 114 249 209 314 37 25 151 73 201 84 57 13 168 6 227 -14z m-744 -96
c2 -13 10 -23 19 -23 12 0 13 -3 4 -14 -6 -7 -22 -11 -36 -8 -21 4 -25 1 -25
-21 0 -37 -32 -50 -117 -50 -64 0 -73 -3 -73 -19 0 -16 9 -18 75 -18 41 0 75
-3 75 -6 0 -3 -5 -14 -10 -25 -9 -16 -22 -19 -75 -19 -51 0 -65 -3 -65 -15 0
-12 13 -15 60 -15 60 0 60 0 54 -26 -5 -18 -1 -29 12 -39 18 -13 18 -13 -1
-12 -11 1 -22 11 -25 21 -3 12 -19 23 -39 29 -49 12 -64 3 -56 -33 4 -19 3
-30 -4 -30 -6 0 -11 14 -11 31 l0 31 -69 -4 c-69 -3 -70 -3 -75 25 -3 16 -15
41 -27 55 l-21 27 96 3 c75 2 96 6 96 17 0 12 -19 14 -99 12 l-99 -2 -10 43
c-6 27 -6 42 1 42 5 0 7 9 4 20 -4 16 2 20 37 25 81 12 242 23 321 21 75 -1
80 -2 83 -23z m-569 1 c3 -2 -1 -10 -7 -16 -7 -7 -12 -20 -12 -30 0 -26 36
-23 45 5 8 21 8 21 12 -5 5 -29 17 -37 27 -15 7 13 0 -19 -11 -55 -5 -18 -3
-20 16 -15 21 5 22 4 7 -12 -20 -22 -21 -51 -1 -51 9 0 12 -6 9 -15 -4 -11 1
-15 17 -15 22 -1 23 -2 7 -14 -10 -7 -18 -21 -18 -31 0 -13 6 -16 25 -13 28 6
32 -3 11 -21 -8 -7 -13 -24 -12 -39 3 -24 9 -28 52 -35 57 -10 62 -10 130 -1
39 5 60 2 89 -12 106 -50 191 23 140 120 -20 39 -19 63 5 76 11 6 20 21 20 34
0 27 39 82 40 56 0 -8 9 -21 20 -28 27 -17 25 -30 -5 -38 -26 -6 -36 -44 -12
-44 9 0 8 -3 -2 -9 -9 -6 -11 -18 -7 -34 3 -14 1 -29 -4 -32 -6 -4 -10 -16 -9
-28 6 -68 0 -85 -33 -96 -18 -5 -59 -13 -90 -17 -63 -7 -70 -17 -42 -59 9 -13
13 -32 10 -42 -4 -13 9 -39 38 -79 34 -48 52 -63 85 -72 38 -12 41 -15 38 -45
-2 -26 2 -33 19 -35 14 -2 28 -17 39 -42 20 -45 15 -70 -15 -70 -17 0 -18 3
-9 18 9 14 5 26 -19 62 -55 81 -137 135 -227 150 -35 6 -74 22 -109 44 -61 41
-66 43 -66 18 0 -11 -8 -26 -18 -36 -18 -15 -21 -14 -56 19 -21 19 -44 35 -52
35 -8 0 -22 16 -31 35 -25 53 -46 46 -38 -12 6 -45 4 -50 -27 -80 -23 -23 -49
-36 -82 -42 -47 -9 -66 -22 -66 -48 0 -6 5 -15 11 -19 6 -4 8 -20 5 -40 -6
-30 -4 -35 24 -49 29 -15 40 -35 19 -35 -37 0 -77 60 -66 102 3 11 1 30 -4 41
-14 25 2 41 56 60 44 15 61 52 31 69 -26 15 -21 88 9 128 31 41 33 70 5 70
-15 0 -20 7 -20 29 0 16 5 31 12 33 7 3 11 35 11 96 0 75 -4 97 -19 113 -10
11 -24 17 -31 15 -15 -6 -16 18 -3 49 l9 20 1 -20 c1 -24 23 -55 39 -55 6 0
11 -4 11 -10 0 -5 7 -10 15 -10 8 0 15 7 15 15 0 8 5 15 10 15 6 0 10 7 10 16
0 12 -7 15 -24 12 -19 -4 -22 -1 -18 14 3 14 0 17 -13 11 -13 -4 -16 -3 -11 5
5 8 0 12 -15 12 -21 0 -21 0 2 20 19 16 33 19 64 15 21 -3 41 -8 44 -11z
m1860 -11 c-9 -25 -7 -31 20 -55 17 -16 37 -28 44 -28 23 0 57 40 57 68 0 21
2 24 10 12 5 -8 10 -27 10 -42 0 -14 5 -28 11 -30 7 -2 7 -12 -1 -32 -7 -19
-7 -33 -1 -39 15 -15 2 -69 -21 -89 -11 -10 -33 -18 -49 -18 -31 0 -41 -23
-13 -34 8 -3 12 -11 8 -17 -5 -8 -10 -6 -16 5 -5 9 -22 16 -38 16 -20 0 -30 5
-30 15 0 9 -7 18 -15 21 -12 5 -13 10 -4 20 8 10 7 17 -5 29 -23 23 -20 52 9
81 28 28 31 46 11 63 -14 12 -11 46 7 69 15 19 17 14 6 -15z m369 -54 c12 -8
22 -22 22 -32 0 -13 7 -18 23 -16 26 2 57 -9 57 -22 0 -5 -7 -9 -15 -9 -13 0
-15 -9 -12 -41 2 -23 10 -45 18 -50 10 -6 10 -9 2 -9 -15 0 -18 -47 -4 -52 5
-1 3 -9 -5 -16 -11 -10 -14 -10 -14 1 0 10 -8 13 -25 9 -17 -3 -25 -11 -25
-24 0 -16 5 -19 25 -16 14 3 33 -1 42 -9 17 -14 17 -14 0 -9 -10 3 -34 6 -52
6 -29 0 -32 3 -28 21 4 12 0 25 -8 30 -10 6 -10 9 -1 9 8 0 12 16 12 45 0 41
-2 45 -24 45 -13 0 -29 7 -36 15 -11 13 -8 14 19 9 28 -6 31 -4 31 20 0 24 -3
26 -45 26 -33 0 -45 -4 -45 -15 0 -8 -4 -15 -10 -15 -5 0 -7 7 -3 16 5 14 1
16 -25 12 -32 -4 -32 -4 -26 34 6 32 4 38 -12 39 -14 1 -13 3 6 9 37 11 133 5
158 -11z m383 -254 c12 -137 7 -258 -15 -365 -13 -63 -14 -57 -15 145 -1 116
-3 262 -6 325 -5 113 -4 114 10 70 9 -25 20 -103 26 -175z m-453 83 c18 -18
15 -33 -13 -66 -30 -36 -31 -55 -4 -93 23 -33 34 -35 78 -13 37 18 100 12 131
-14 26 -22 48 -91 39 -122 -4 -14 -7 -39 -8 -57 -1 -21 -8 -36 -21 -43 -11 -6
-20 -19 -20 -29 0 -10 -12 -31 -26 -47 -15 -15 -34 -49 -43 -74 -22 -62 -27
-67 -61 -72 -36 -5 -41 19 -10 47 11 10 20 23 20 29 0 6 20 34 45 63 28 31 45
61 45 76 0 14 8 39 17 56 23 40 9 51 -25 19 -55 -52 -119 -71 -163 -47 -20 10
-20 10 0 35 38 48 36 165 -2 172 -14 3 -17 -4 -17 -35 0 -39 -30 -115 -49
-127 -13 -8 -15 -56 -2 -56 11 0 -1 -51 -23 -102 -9 -21 -16 -52 -16 -70 0
-54 -10 -76 -36 -81 -24 -4 -33 6 -14 18 6 3 10 17 10 30 0 12 7 25 15 29 21
8 19 55 -4 91 -28 47 -31 94 -10 135 11 19 19 45 19 57 0 12 5 25 10 28 16 10
12 55 -4 49 -13 -5 -27 -34 -56 -111 -12 -31 -60 -85 -60 -67 0 6 27 56 60
112 61 103 72 129 46 115 -17 -10 -53 -58 -95 -130 -22 -37 -35 -51 -46 -47
-23 9 -19 15 35 69 67 65 103 126 94 160 -4 15 -11 22 -18 18 -6 -4 -6 0 2 9
7 9 26 21 43 28 16 7 37 26 45 41 11 23 21 29 47 29 18 0 38 -5 45 -12z m-382
-254 c-21 -20 -20 -23 7 -34 l22 -9 -23 0 c-29 -1 -27 -34 3 -40 24 -4 35 -19
35 -48 0 -13 6 -23 14 -23 8 0 16 -6 19 -13 4 -10 -2 -13 -19 -9 -19 3 -24 0
-24 -17 0 -12 6 -21 15 -21 8 0 15 -7 15 -15 0 -8 -7 -15 -16 -15 -12 0 -15
-6 -10 -25 4 -16 2 -25 -5 -25 -7 0 -9 -10 -7 -25 4 -21 1 -25 -18 -25 -12 0
-26 -4 -29 -10 -3 -5 -28 -10 -56 -10 -44 0 -49 -2 -50 -22 l-2 -23 -4 23 c-3
14 -12 22 -25 22 -15 0 -19 -5 -15 -20 3 -11 1 -20 -4 -20 -5 0 -9 9 -9 20 0
29 -37 27 -43 -2 -4 -21 -4 -21 -6 -2 0 11 13 33 30 50 19 18 28 22 24 11 -6
-13 -2 -17 19 -17 19 0 26 5 26 20 0 11 -7 20 -15 20 -14 0 -14 3 1 23 13 17
25 22 46 19 21 -3 28 0 28 12 0 9 -8 16 -17 16 -13 0 -14 3 -5 12 7 7 36 11
67 10 48 -1 55 1 55 18 0 17 -7 20 -45 20 -25 0 -45 5 -45 10 0 6 9 10 20 10
23 0 28 34 8 44 -10 5 -10 7 0 12 6 3 12 23 12 44 0 49 8 70 27 70 12 0 12 -2
-1 -16z m-1730 -212 c30 0 47 5 54 16 9 16 9 16 10 0 0 -16 11 -18 93 -19 50
0 101 -4 112 -9 13 -7 -9 -9 -70 -8 -76 2 -90 0 -93 -14 -4 -22 54 -31 161
-23 68 5 93 3 116 -10 44 -22 57 -95 17 -95 -10 0 -13 6 -10 15 5 11 -1 15
-20 15 -18 0 -26 -5 -26 -17 0 -14 -2 -15 -9 -5 -6 10 -54 14 -184 18 -153 3
-177 2 -177 -11 0 -8 -4 -15 -10 -15 -5 0 -10 7 -10 15 0 18 -46 21 -53 3 -2
-7 -7 9 -11 36 -7 44 -10 48 -32 43 -20 -3 -24 0 -24 19 0 13 5 24 10 24 6 0
10 -7 10 -15 0 -12 20 -15 120 -15 113 0 120 1 120 20 0 18 -7 20 -77 22 -43
0 -87 0 -98 0 -18 -2 -17 0 5 18 19 15 26 16 28 5 2 -9 18 -13 48 -13z"/>
<path d="M1755 3961 c-150 -54 -243 -135 -307 -270 -35 -74 -41 -97 -46 -172
-3 -53 0 -107 8 -140 38 -156 152 -289 301 -350 76 -31 93 -34 184 -34 154 0
259 46 363 160 71 78 98 131 118 234 61 311 -170 593 -485 590 -55 0 -104 -7
-136 -18z"/>
<path d="M670 3751 c-14 -28 -12 -51 5 -57 8 -4 15 -15 15 -25 0 -10 6 -19 14
-19 9 0 12 -8 8 -25 -2 -15 0 -25 7 -25 6 0 11 -13 11 -30 0 -16 5 -30 10 -30
6 0 10 -7 10 -16 0 -23 41 -64 64 -64 16 0 18 6 13 42 -3 24 -11 44 -16 46 -6
2 -11 10 -11 18 0 8 -5 14 -10 14 -6 0 -8 10 -4 24 3 13 1 27 -5 30 -6 4 -11
16 -11 27 0 21 -19 25 -38 9 -9 -7 -9 -7 -2 2 12 14 13 58 2 58 -4 0 -13 -5
-18 -10 -7 -7 -9 -1 -6 20 3 23 0 30 -12 30 -8 0 -20 -9 -26 -19z"/>
<path d="M1397 2453 c-12 -11 -8 -20 19 -52 21 -26 33 -31 68 -31 37 0 46 -5
79 -45 l38 -45 -601 0 -600 0 0 -35 0 -35 50 0 50 0 0 -40 0 -40 -40 6 -40 7
0 -42 c0 -48 27 -94 111 -185 35 -38 59 -56 75 -56 37 0 29 21 -30 79 l-55 54
22 38 c22 38 22 38 43 18 13 -12 37 -20 67 -21 l47 -2 0 -56 c1 -44 6 -61 25
-82 13 -16 31 -28 40 -28 13 0 15 24 15 175 l0 175 166 0 165 0 -3 -27 -3 -28
-112 -5 c-139 -6 -166 -21 -171 -93 -4 -55 13 -92 70 -153 26 -28 49 -44 64
-44 36 0 29 21 -21 70 -37 36 -45 51 -45 81 0 48 19 62 88 67 56 3 58 3 81
-32 36 -55 83 -79 140 -74 46 5 47 4 43 -22 -3 -20 4 -35 28 -58 59 -59 61
-53 58 143 l-3 175 48 0 47 0 0 -59 c0 -54 -2 -60 -22 -63 -17 -2 -24 -11 -26
-32 -3 -22 5 -36 37 -67 22 -22 46 -39 54 -39 20 0 37 21 37 47 0 21 4 23 60
23 l60 0 0 -57 c0 -66 24 -108 56 -101 18 3 19 14 19 176 l0 172 118 0 117 0
0 -35 0 -36 -30 16 c-49 26 -130 12 -150 -25 -46 -85 76 -215 159 -170 16 8
19 4 24 -25 6 -36 38 -75 62 -75 13 0 15 26 15 175 l0 175 25 0 c22 0 25 4 25
35 l0 35 -215 0 c-177 0 -215 2 -215 14 0 26 -91 125 -134 146 -42 20 -87 26
-99 13z m-147 -292 c0 -27 -4 -61 -9 -74 -12 -31 -61 -51 -106 -43 -40 8 -45
23 -12 35 42 16 51 37 40 86 l-10 45 48 0 49 0 0 -49z m370 -11 l0 -60 -65 0
-65 0 0 60 0 60 65 0 65 0 0 -60z"/>
<path d="M2985 2450 c-4 -6 5 -26 19 -45 22 -29 33 -34 72 -37 41 -3 51 -8 82
-45 l35 -43 -502 0 -502 0 3 -32 3 -33 168 -3 167 -2 0 -37 0 -36 -87 5 c-127
8 -134 2 -82 -62 33 -41 35 -73 5 -78 -33 -7 -64 19 -96 79 -30 57 -55 74 -66
45 -7 -18 47 -120 83 -158 54 -57 138 -65 161 -15 12 24 12 35 -1 73 l-14 44
48 0 49 0 0 -83 c0 -74 3 -86 23 -105 13 -12 31 -22 40 -22 15 0 17 18 17 175
l0 175 61 0 c60 0 60 0 57 -27 -3 -25 -8 -29 -45 -34 -68 -9 -68 -8 -1 -106
34 -51 87 -77 144 -70 44 5 44 4 44 -27 0 -22 9 -41 28 -59 50 -48 52 -42 52
148 l0 175 130 0 130 0 0 -30 0 -30 -60 0 c-102 0 -160 -38 -160 -106 0 -55
103 -184 147 -184 34 0 28 17 -21 64 -52 51 -62 76 -44 113 14 30 41 40 103
42 l40 1 -3 -83 c-4 -78 -2 -86 21 -110 13 -15 32 -27 41 -27 14 0 16 20 16
175 0 168 1 175 20 175 16 0 20 7 20 35 l0 35 -55 0 c-43 0 -55 3 -55 16 0 27
-99 131 -141 148 -45 18 -85 21 -94 6z m-115 -305 c0 -63 -1 -66 -32 -85 -38
-23 -77 -26 -103 -6 -17 12 -16 14 19 31 l38 18 -7 54 -6 53 45 0 46 0 0 -65z"/>
<path d="M1547 1319 c-103 -24 -210 -116 -241 -206 -10 -28 -16 -80 -16 -132
0 -74 4 -95 29 -146 42 -90 107 -142 289 -233 171 -85 225 -127 242 -191 20
-77 -14 -155 -87 -198 -92 -54 -232 -41 -373 33 -35 19 -77 34 -92 34 -23 0
-29 -6 -38 -39 -16 -61 -3 -116 35 -150 70 -61 216 -97 363 -88 256 14 407
158 407 387 0 72 -5 94 -28 145 -44 93 -101 139 -290 233 -181 90 -240 138
-253 207 -10 55 19 120 69 153 36 24 50 27 121 27 75 0 88 -3 174 -44 73 -35
97 -43 110 -34 23 14 35 73 25 124 -7 37 -15 48 -53 71 -25 15 -72 34 -105 43
-64 16 -225 19 -288 4z"/>
<path d="M100 1314 c-8 -4 -23 -13 -32 -22 -17 -14 -18 -57 -18 -624 0 -604 0
-608 21 -629 20 -20 28 -21 267 -17 234 4 251 6 328 31 181 60 292 171 351
352 35 108 45 351 18 469 -47 216 -196 369 -407 422 -65 16 -497 30 -528 18z
m432 -185 c200 -43 308 -203 308 -459 0 -120 -20 -213 -61 -291 -73 -137 -192
-188 -441 -189 l-88 0 0 475 0 475 115 0 c62 0 138 -5 167 -11z"/>
<path d="M2368 1309 c-17 -9 -18 -51 -18 -645 0 -724 -12 -649 101 -649 41 0
72 5 82 14 16 12 17 70 17 642 0 611 -1 629 -19 639 -25 13 -141 13 -163 -1z"/>
<path d="M2953 1296 l-28 -24 -3 -609 c-2 -517 0 -612 12 -628 12 -17 26 -20
89 -20 48 0 80 5 90 14 15 12 17 44 17 282 l0 269 73 0 c87 0 138 -21 186 -75
39 -45 51 -70 141 -300 73 -190 78 -195 167 -195 76 0 103 13 103 50 0 34
-123 348 -177 452 -20 37 -52 83 -73 102 l-37 34 34 16 c56 26 129 102 154
159 17 39 23 72 23 132 2 156 -49 244 -174 308 -91 46 -170 57 -407 57 -157 0
-163 -1 -190 -24z m430 -167 c50 -13 103 -61 118 -106 16 -51 7 -147 -18 -181
-49 -66 -125 -92 -268 -92 l-85 0 0 195 0 195 108 0 c59 0 124 -5 145 -11z"/>
</g>
</svg>
